<svg width="64" height="64" viewBox="0 0 64 64" fill="none" xmlns="http://www.w3.org/2000/svg">
  <rect width="64" height="64" rx="16" fill="#A81B24"/>
  <path d="M40 24V40C40 42.2091 38.2091 44 36 44C33.7909 44 32 42.2091 32 40C32 37.7909 33.7909 36 36 36C36.7266 36 37.4005 36.1942 37.9818 36.5332C38.0039 36.5461 38.0441 36.5614 38.0825 36.5519C38.1065 36.5459 38.125 36.5293 38.125 36.5042V26C38.125 25.5858 37.7892 25.25 37.375 25.25H31C30.5858 25.25 30.25 25.5858 30.25 26V40C30.25 42.2091 28.4591 44 26.25 44C24.0409 44 22.25 42.2091 22.25 40C22.25 37.7909 24.0409 36 26.25 36C26.9766 36 27.6505 36.1942 28.2318 36.5332C28.2539 36.5461 28.2941 36.5614 28.3325 36.5519C28.3565 36.5459 28.375 36.5293 28.375 36.5042V22C28.375 21.4477 28.8227 21 29.375 21H39C39.5523 21 40 21.4477 40 22V24Z" fill="white"/>
  <circle cx="48" cy="18" r="6" fill="#EAB308"/>
</svg>
